<svg width="42" height="42" viewBox="0 0 42 42" fill="none" xmlns="http://www.w3.org/2000/svg">
<path d="M0 5.25049C0 2.351 2.35051 0.000488281 5.25 0.000488281H36.75C39.6495 0.000488281 42 2.35099 42 5.25049V36.7506C42 39.6501 39.6495 42.0006 36.75 42.0006H5.25C2.35051 42.0006 0 39.6501 0 36.7506V5.25049Z" fill="#E9ECF1"/>
<path d="M13 26.0005C13 28.2096 14.7533 30.0005 16.916 30.0005C18.69 30.0005 20.1885 28.7956 20.6699 27.1433H24.8599C25.2819 27.1433 25.3075 27.1695 25.3075 27.6005V28.8576C25.3075 29.3964 25.3075 29.6658 25.4713 29.8331C25.6352 30.0005 25.8989 30.0005 26.4263 30.0005H27.1874C27.6265 30.0005 27.846 30.0005 28.0007 29.871C28.1554 29.7415 28.1984 29.5216 28.2845 29.0818L28.2845 29.0818L28.5921 27.5108C28.661 27.159 28.6797 27.1433 29.031 27.1433H29.7829C30.3104 27.1433 30.5741 27.1433 30.7379 26.976C31.1045 26.6016 31.0698 24.7926 30.7379 24.4536C30.5741 24.2862 30.3104 24.2862 29.7829 24.2862H20.4552C19.8267 22.9348 18.4782 22.0005 16.916 22.0005C14.7533 22.0005 13 23.7913 13 26.0005Z" stroke="#667084" stroke-width="1.5" stroke-linecap="round" stroke-linejoin="round"/>
<path d="M17.009 26.0005H17" stroke="#667084" stroke-width="2" stroke-linecap="round" stroke-linejoin="round"/>
<path d="M28 21.5005V18.0005C28 15.1721 28 13.7578 27.1213 12.8792C26.2426 12.0005 24.8284 12.0005 22 12.0005H17C14.1716 12.0005 12.7574 12.0005 11.8787 12.8792C11 13.7578 11 15.1721 11 18.0005V23.0005" stroke="#667084" stroke-width="1.5" stroke-linecap="round" stroke-linejoin="round"/>
</svg>
