<svg width="42" height="42" viewBox="0 0 42 42" fill="none" xmlns="http://www.w3.org/2000/svg">
<path d="M0 5.25012C0 2.35063 2.35051 0.00012207 5.25 0.00012207H36.75C39.6495 0.00012207 42 2.35063 42 5.25012V36.7503C42 39.6497 39.6495 42.0003 36.75 42.0003H5.25C2.35051 42.0003 0 39.6497 0 36.7503V5.25012Z" fill="#2B50E6"/>
<path d="M28 18.0001V16.8183C28 15.1251 28 14.2784 27.7478 13.6023C27.3424 12.5152 26.4849 11.6578 25.3979 11.2523C24.7217 11.0001 23.8751 11.0001 22.1818 11.0001C19.2186 11.0001 17.7371 11.0001 16.5538 11.4415C14.6514 12.151 13.1509 13.6515 12.4414 15.5539C12 16.7372 12 18.2188 12 21.1819L12 23.7274C12 26.7968 12 28.3314 12.7978 29.3972C13.0264 29.7026 13.2975 29.9737 13.6029 30.2023C14.6687 31.0001 16.2034 31.0001 19.2727 31.0001H20C21.1698 31.0001 23.5 31.0001 23.5 31.0001" stroke="white" stroke-width="1.5" stroke-linecap="round" stroke-linejoin="round"/>
<path d="M20 23.3335H20.8403C21.5019 23.3335 21.8326 23.3335 22.0985 23.5077C22.3643 23.6819 22.5122 23.9957 22.8081 24.6233L24.4 28.0001L26.6 21.0001L28.1919 24.377C28.4878 25.0045 28.6357 25.3183 28.9015 25.4925C29.1674 25.6668 29.4981 25.6668 30.1597 25.6668H31" stroke="white" stroke-width="1.5" stroke-linecap="round" stroke-linejoin="round"/>
<path d="M12 21.0001C12 19.1592 13.4924 17.6668 15.3333 17.6668H16.4444C16.9611 17.6668 17.2194 17.6668 17.4314 17.61C18.0065 17.4559 18.4558 17.0066 18.6099 16.4315C18.6667 16.2195 18.6667 15.9612 18.6667 15.4446V14.3335C18.6667 12.4925 20.1591 11.0001 22 11.0001" stroke="white" stroke-width="1.5" stroke-linecap="round" stroke-linejoin="round"/>
</svg>
