<svg width="42" height="42" viewBox="0 0 42 42" fill="none" xmlns="http://www.w3.org/2000/svg">
<path d="M0 5.25C0 2.35051 2.35051 0 5.25 0H36.75C39.6495 0 42 2.35051 42 5.25V36.7501C42 39.6496 39.6495 42.0001 36.75 42.0001H5.25C2.35051 42.0001 0 39.6496 0 36.7501V5.25Z" fill="#E9ECF1"/>
<path d="M27.6161 29H28.1063C29.2561 29 30.1707 28.4761 30.9919 27.7436C33.078 25.8826 28.1741 24 26.5 24M24.5 14.0688C24.7271 14.0237 24.9629 14 25.2048 14C27.0247 14 28.5 15.3431 28.5 17C28.5 18.6569 27.0247 20 25.2048 20C24.9629 20 24.7271 19.9763 24.5 19.9312" stroke="#667084" stroke-width="1.5" stroke-linecap="round"/>
<path d="M13.4813 25.1112C12.3023 25.743 9.21114 27.0331 11.0939 28.6474C12.0136 29.436 13.0379 30 14.3257 30H21.6743C22.9621 30 23.9864 29.436 24.9061 28.6474C26.7889 27.0331 23.6977 25.743 22.5187 25.1112C19.754 23.6296 16.246 23.6296 13.4813 25.1112Z" stroke="#667084" stroke-width="1.5"/>
<path d="M22 16.5C22 18.7091 20.2091 20.5 18 20.5C15.7909 20.5 14 18.7091 14 16.5C14 14.2909 15.7909 12.5 18 12.5C20.2091 12.5 22 14.2909 22 16.5Z" stroke="#667084" stroke-width="1.5"/>
</svg>
