<svg width="42" height="42" viewBox="0 0 42 42" fill="none" xmlns="http://www.w3.org/2000/svg">
<path d="M0 5.25C0 2.35051 2.35051 0 5.25 0H36.75C39.6495 0 42 2.35051 42 5.25V36.7501C42 39.6496 39.6495 42.0001 36.75 42.0001H5.25C2.35051 42.0001 0 39.6496 0 36.7501V5.25Z" fill="#E9ECF1"/>
<path d="M19.4706 31C15.4775 31 13.481 31 12.2405 29.8284C11 28.6569 11 26.7712 11 23L11 19C11 15.2288 11 13.3431 12.2405 12.1716C13.481 11 15.4775 11 19.4706 11L20.5294 11C24.5225 11 26.519 11 27.7595 12.1716C29 13.3431 29 15.2288 29 19" stroke="#667084" stroke-width="1.5" stroke-linecap="round"/>
<path d="M16 16H24" stroke="#667084" stroke-width="1.5" stroke-linecap="round"/>
<path d="M16 21H22" stroke="#667084" stroke-width="1.5" stroke-linecap="round"/>
<path d="M23 31C24.8385 28.2518 29.1188 28.1018 31 31M29 23.9287C29 24.9939 28.1046 25.8574 27 25.8574C25.8954 25.8574 25 24.9939 25 23.9287C25 22.8635 25.8954 22 27 22C28.1046 22 29 22.8635 29 23.9287Z" stroke="#667084" stroke-width="1.5" stroke-linecap="round"/>
</svg>
