<svg width="42" height="42" viewBox="0 0 42 42" fill="none" xmlns="http://www.w3.org/2000/svg">
<path d="M0 7.30447C0 3.27039 3.27027 0.00012207 7.30435 0.00012207H34.6957C38.7297 0.00012207 42 3.27039 42 7.30447V34.6958C42 38.7299 38.7297 42.0001 34.6957 42.0001H7.30435C3.27027 42.0001 0 38.7299 0 34.6958V7.30447Z" fill="#2B50E6"/>
<path d="M19.4706 31.0001C15.4775 31.0001 13.481 31.0001 12.2405 29.8285C11 28.657 11 26.7714 11 23.0001L11 19.0001C11 15.2289 11 13.3433 12.2405 12.1717C13.481 11.0001 15.4775 11.0001 19.4706 11.0001L20.5294 11.0001C24.5225 11.0001 26.519 11.0001 27.7595 12.1717C29 13.3433 29 15.2289 29 19.0001" stroke="white" stroke-width="1.5" stroke-linecap="round"/>
<path d="M16 16.0001H24" stroke="white" stroke-width="1.5" stroke-linecap="round"/>
<path d="M16 21.0001H22" stroke="white" stroke-width="1.5" stroke-linecap="round"/>
<path d="M23 31.0001C24.8385 28.2519 29.1188 28.1019 31 31.0001M29 23.9288C29 24.994 28.1046 25.8575 27 25.8575C25.8954 25.8575 25 24.994 25 23.9288C25 22.8636 25.8954 22.0001 27 22.0001C28.1046 22.0001 29 22.8636 29 23.9288Z" stroke="white" stroke-width="1.5" stroke-linecap="round"/>
</svg>
