<svg width="42" height="42" viewBox="0 0 42 42" fill="none" xmlns="http://www.w3.org/2000/svg">
<path d="M0 5.25049C0 2.351 2.35051 0.000488281 5.25 0.000488281H36.75C39.6495 0.000488281 42 2.35099 42 5.25049V36.7506C42 39.6501 39.6495 42.0006 36.75 42.0006H5.25C2.35051 42.0006 0 39.6501 0 36.7506V5.25049Z" fill="#2B50E6"/>
<path d="M22 27.0005C22 27.0005 23 27.0005 24 29.0005C24 29.0005 27.1765 24.0005 30 23.0005" stroke="white" stroke-width="1.5" stroke-linecap="round" stroke-linejoin="round"/>
<path d="M20 31.0005H19.7273C16.4661 31.0005 14.8355 31.0005 13.7031 30.2027C13.3786 29.9741 13.0906 29.703 12.8477 29.3976C12 28.3318 12 26.7971 12 23.7278V21.1823C12 18.2191 12 16.7375 12.4689 15.5542C13.2228 13.6519 14.8171 12.1514 16.8384 11.4418C18.0956 11.0005 19.6698 11.0005 22.8182 11.0005C24.6173 11.0005 25.5168 11.0005 26.2352 11.2527C27.3902 11.6581 28.3012 12.5156 28.732 13.6026C29 14.2788 29 15.1254 29 16.8187V19.0005" stroke="white" stroke-width="1.5" stroke-linecap="round" stroke-linejoin="round"/>
<path d="M12 21.0005C12 19.1595 13.4924 17.6672 15.3333 17.6672C15.9991 17.6672 16.784 17.7838 17.4314 17.6104C18.0065 17.4563 18.4558 17.007 18.6099 16.4319C18.7833 15.7845 18.6667 14.9996 18.6667 14.3338C18.6667 12.4929 20.1591 11.0005 22 11.0005" stroke="white" stroke-width="1.5" stroke-linecap="round" stroke-linejoin="round"/>
</svg>
