<svg width="42" height="42" viewBox="0 0 42 42" fill="none" xmlns="http://www.w3.org/2000/svg">
<path d="M0 5.25025C0 2.35075 2.35051 0.000244141 5.25 0.000244141H36.75C39.6495 0.000244141 42 2.35075 42 5.25024V36.7504C42 39.6499 39.6495 42.0004 36.75 42.0004H5.25C2.35051 42.0004 0 39.6499 0 36.7504V5.25025Z" fill="#2B50E6"/>
<path d="M22.0014 11.0002C23.1053 11.0002 24.0003 11.9315 24.0003 13.0803C24.0003 14.0294 24.0362 14.874 23.2692 15.5722C20.7587 17.8576 19.5034 19.0002 18.0003 19.0002C16.4971 19.0002 15.2419 17.8576 12.7313 15.5722C11.9643 14.8739 12.0003 14.0292 12.0003 13.0801C12.0003 11.9314 12.8951 11.0002 13.9989 11.0002" stroke="white" stroke-width="1.5" stroke-linecap="round" stroke-linejoin="round"/>
<path d="M18 23.0002V26.5C18 28.9855 20.0149 31.0003 22.5003 31.0003C24.9858 31.0003 27.0007 28.9855 27.0007 26.5V25.0002" stroke="white" stroke-width="1.5" stroke-linecap="round" stroke-linejoin="round"/>
<path d="M23 16.0002L21.6978 19.2558C21.3516 20.1212 21.1785 20.5539 20.8887 20.9095C20.5988 21.265 20.2098 21.5217 19.4319 22.0352L17.9696 23.0002L16.5328 22.0326C15.7722 21.5203 15.3919 21.2642 15.1082 20.9129C14.8245 20.5616 14.6542 20.1358 14.3136 19.2844L13 16.0002" stroke="white" stroke-width="1.5" stroke-linecap="round" stroke-linejoin="round"/>
<path d="M30 22.0002C30 23.6571 28.6569 25.0002 27 25.0002C25.3431 25.0002 24 23.6571 24 22.0002C24 20.3434 25.3431 19.0002 27 19.0002C28.6569 19.0002 30 20.3434 30 22.0002Z" stroke="white" stroke-width="1.5"/>
<path d="M27.008 22.0002L26.999 22.0002" stroke="white" stroke-width="2" stroke-linecap="round" stroke-linejoin="round"/>
</svg>
